<mxfile host="app.diagrams.net" agent="Mozilla/5.0 (Windows NT 10.0; Win64; x64) AppleWebKit/537.36 (KHTML, like Gecko) Chrome/141.0.0.0 Safari/537.36" version="28.2.7">
<diagram name="Page-1" id="RX5u0pL_1naTzeweLBAo">
<mxGraphModel dx="2037" dy="1127" grid="1" gridSize="10" guides="1" tooltips="1" connect="1" arrows="1" fold="1" page="1" pageScale="1" pageWidth="850" pageHeight="1100" math="0" shadow="0">
<root>
<mxCell id="0"/>
<mxCell id="1" parent="0"/>
<mxCell id="w3yg10zAp99pLnALNRif-2" value="" style="edgeStyle=orthogonalEdgeStyle;rounded=0;orthogonalLoop=1;jettySize=auto;html=1;" edge="1" parent="1" source="w3yg10zAp99pLnALNRif-3" target="w3yg10zAp99pLnALNRif-13">
<mxGeometry relative="1" as="geometry"/>
</mxCell>
<mxCell id="w3yg10zAp99pLnALNRif-3" value="Login" style="rounded=1;whiteSpace=wrap;html=1;fillColor=#dae8fc;strokeColor=#6c8ebf;" vertex="1" parent="1">
<mxGeometry x="750" y="530" width="120" height="60" as="geometry"/>
</mxCell>
<mxCell id="w3yg10zAp99pLnALNRif-4" style="edgeStyle=orthogonalEdgeStyle;rounded=0;orthogonalLoop=1;jettySize=auto;html=1;entryX=1;entryY=0.5;entryDx=0;entryDy=0;" edge="1" parent="1" source="w3yg10zAp99pLnALNRif-7" target="w3yg10zAp99pLnALNRif-9">
<mxGeometry relative="1" as="geometry">
<Array as="points">
<mxPoint x="590" y="560"/>
<mxPoint x="590" y="510"/>
</Array>
</mxGeometry>
</mxCell>
<mxCell id="w3yg10zAp99pLnALNRif-5" style="edgeStyle=orthogonalEdgeStyle;rounded=0;orthogonalLoop=1;jettySize=auto;html=1;entryX=1;entryY=0.5;entryDx=0;entryDy=0;" edge="1" parent="1" target="w3yg10zAp99pLnALNRif-8">
<mxGeometry relative="1" as="geometry">
<mxPoint x="630.0000002513624" y="570.0044843049327" as="sourcePoint"/>
<mxPoint x="560" y="620" as="targetPoint"/>
</mxGeometry>
</mxCell>
<mxCell id="w3yg10zAp99pLnALNRif-6" style="edgeStyle=orthogonalEdgeStyle;rounded=0;orthogonalLoop=1;jettySize=auto;html=1;entryX=0;entryY=0.5;entryDx=0;entryDy=0;" edge="1" parent="1" source="w3yg10zAp99pLnALNRif-7" target="w3yg10zAp99pLnALNRif-3">
<mxGeometry relative="1" as="geometry"/>
</mxCell>
<mxCell id="w3yg10zAp99pLnALNRif-7" value="Student" style="ellipse;whiteSpace=wrap;html=1;aspect=fixed;fillColor=#fff2cc;strokeColor=#d6b656;" vertex="1" parent="1">
<mxGeometry x="620" y="520" width="80" height="80" as="geometry"/>
</mxCell>
<mxCell id="w3yg10zAp99pLnALNRif-8" value="Register" style="rounded=1;whiteSpace=wrap;html=1;fillColor=#f5f5f5;fontColor=#333333;strokeColor=#666666;" vertex="1" parent="1">
<mxGeometry x="430" y="580" width="120" height="60" as="geometry"/>
</mxCell>
<mxCell id="w3yg10zAp99pLnALNRif-9" value="Reset Password" style="rounded=1;whiteSpace=wrap;html=1;fillColor=#f5f5f5;fontColor=#333333;strokeColor=#666666;" vertex="1" parent="1">
<mxGeometry x="430" y="480" width="120" height="60" as="geometry"/>
</mxCell>
<mxCell id="w3yg10zAp99pLnALNRif-10" style="edgeStyle=orthogonalEdgeStyle;rounded=0;orthogonalLoop=1;jettySize=auto;html=1;entryX=0.5;entryY=1;entryDx=0;entryDy=0;" edge="1" parent="1" source="w3yg10zAp99pLnALNRif-13" target="w3yg10zAp99pLnALNRif-15">
<mxGeometry relative="1" as="geometry"/>
</mxCell>
<mxCell id="w3yg10zAp99pLnALNRif-11" style="edgeStyle=orthogonalEdgeStyle;rounded=0;orthogonalLoop=1;jettySize=auto;html=1;entryX=0;entryY=0.5;entryDx=0;entryDy=0;" edge="1" parent="1" source="w3yg10zAp99pLnALNRif-13" target="w3yg10zAp99pLnALNRif-17">
<mxGeometry relative="1" as="geometry">
<Array as="points">
<mxPoint x="1110" y="540"/>
<mxPoint x="1110" y="450"/>
</Array>
</mxGeometry>
</mxCell>
<mxCell id="w3yg10zAp99pLnALNRif-12" style="edgeStyle=orthogonalEdgeStyle;rounded=0;orthogonalLoop=1;jettySize=auto;html=1;entryX=0;entryY=0.5;entryDx=0;entryDy=0;" edge="1" parent="1" source="w3yg10zAp99pLnALNRif-13" target="w3yg10zAp99pLnALNRif-24">
<mxGeometry relative="1" as="geometry"/>
</mxCell>
<mxCell id="w3yg10zAp99pLnALNRif-13" value="Home page" style="rounded=0;whiteSpace=wrap;html=1;fillColor=#dae8fc;strokeColor=#6c8ebf;" vertex="1" parent="1">
<mxGeometry x="950" y="530" width="120" height="60" as="geometry"/>
</mxCell>
<mxCell id="w3yg10zAp99pLnALNRif-14" style="edgeStyle=orthogonalEdgeStyle;rounded=0;orthogonalLoop=1;jettySize=auto;html=1;exitX=0.5;exitY=0;exitDx=0;exitDy=0;" edge="1" parent="1" source="w3yg10zAp99pLnALNRif-15" target="w3yg10zAp99pLnALNRif-56">
<mxGeometry relative="1" as="geometry"/>
</mxCell>
<mxCell id="w3yg10zAp99pLnALNRif-15" value="Profile page" style="rounded=1;whiteSpace=wrap;html=1;" vertex="1" parent="1">
<mxGeometry x="950" y="380" width="120" height="60" as="geometry"/>
</mxCell>
<mxCell id="w3yg10zAp99pLnALNRif-16" value="" style="edgeStyle=orthogonalEdgeStyle;rounded=0;orthogonalLoop=1;jettySize=auto;html=1;" edge="1" parent="1" source="w3yg10zAp99pLnALNRif-17" target="w3yg10zAp99pLnALNRif-20">
<mxGeometry relative="1" as="geometry"/>
</mxCell>
<mxCell id="w3yg10zAp99pLnALNRif-17" value="Classes page" style="rounded=1;whiteSpace=wrap;html=1;" vertex="1" parent="1">
<mxGeometry x="1150" y="420" width="120" height="60" as="geometry"/>
</mxCell>
<mxCell id="w3yg10zAp99pLnALNRif-18" style="edgeStyle=orthogonalEdgeStyle;rounded=0;orthogonalLoop=1;jettySize=auto;html=1;entryX=0;entryY=0.5;entryDx=0;entryDy=0;" edge="1" parent="1" source="w3yg10zAp99pLnALNRif-20" target="w3yg10zAp99pLnALNRif-21">
<mxGeometry relative="1" as="geometry">
<Array as="points">
<mxPoint x="1510" y="440"/>
<mxPoint x="1510" y="400"/>
</Array>
</mxGeometry>
</mxCell>
<mxCell id="w3yg10zAp99pLnALNRif-19" style="edgeStyle=orthogonalEdgeStyle;rounded=0;orthogonalLoop=1;jettySize=auto;html=1;entryX=0;entryY=0.5;entryDx=0;entryDy=0;" edge="1" parent="1" source="w3yg10zAp99pLnALNRif-20" target="w3yg10zAp99pLnALNRif-22">
<mxGeometry relative="1" as="geometry"/>
</mxCell>
<mxCell id="w3yg10zAp99pLnALNRif-20" value="View class detail" style="rounded=1;whiteSpace=wrap;html=1;" vertex="1" parent="1">
<mxGeometry x="1350" y="420" width="120" height="60" as="geometry"/>
</mxCell>
<mxCell id="w3yg10zAp99pLnALNRif-21" value="View Class projects" style="rounded=1;whiteSpace=wrap;html=1;" vertex="1" parent="1">
<mxGeometry x="1550" y="370" width="120" height="60" as="geometry"/>
</mxCell>
<mxCell id="w3yg10zAp99pLnALNRif-22" value="View class members" style="whiteSpace=wrap;html=1;rounded=1;" vertex="1" parent="1">
<mxGeometry x="1550" y="460" width="120" height="60" as="geometry"/>
</mxCell>
<mxCell id="w3yg10zAp99pLnALNRif-23" value="" style="edgeStyle=orthogonalEdgeStyle;rounded=0;orthogonalLoop=1;jettySize=auto;html=1;" edge="1" parent="1" source="w3yg10zAp99pLnALNRif-24" target="w3yg10zAp99pLnALNRif-29">
<mxGeometry relative="1" as="geometry"/>
</mxCell>
<mxCell id="w3yg10zAp99pLnALNRif-24" value="Projects page" style="rounded=1;whiteSpace=wrap;html=1;" vertex="1" parent="1">
<mxGeometry x="1150" y="570" width="120" height="60" as="geometry"/>
</mxCell>
<mxCell id="w3yg10zAp99pLnALNRif-25" value="" style="edgeStyle=orthogonalEdgeStyle;rounded=0;orthogonalLoop=1;jettySize=auto;html=1;" edge="1" parent="1" source="w3yg10zAp99pLnALNRif-29" target="w3yg10zAp99pLnALNRif-32">
<mxGeometry relative="1" as="geometry"/>
</mxCell>
<mxCell id="w3yg10zAp99pLnALNRif-26" style="edgeStyle=orthogonalEdgeStyle;rounded=0;orthogonalLoop=1;jettySize=auto;html=1;entryX=0;entryY=0.5;entryDx=0;entryDy=0;" edge="1" parent="1" source="w3yg10zAp99pLnALNRif-29" target="w3yg10zAp99pLnALNRif-37">
<mxGeometry relative="1" as="geometry"/>
</mxCell>
<mxCell id="w3yg10zAp99pLnALNRif-27" style="edgeStyle=orthogonalEdgeStyle;rounded=0;orthogonalLoop=1;jettySize=auto;html=1;entryX=0;entryY=0.5;entryDx=0;entryDy=0;" edge="1" parent="1" source="w3yg10zAp99pLnALNRif-29" target="w3yg10zAp99pLnALNRif-41">
<mxGeometry relative="1" as="geometry"/>
</mxCell>
<mxCell id="w3yg10zAp99pLnALNRif-28" style="edgeStyle=orthogonalEdgeStyle;rounded=0;orthogonalLoop=1;jettySize=auto;html=1;entryX=0;entryY=0.5;entryDx=0;entryDy=0;" edge="1" parent="1" source="w3yg10zAp99pLnALNRif-29" target="w3yg10zAp99pLnALNRif-44">
<mxGeometry relative="1" as="geometry"/>
</mxCell>
<mxCell id="w3yg10zAp99pLnALNRif-29" value="View project list" style="whiteSpace=wrap;html=1;rounded=1;" vertex="1" parent="1">
<mxGeometry x="1350" y="570" width="120" height="60" as="geometry"/>
</mxCell>
<mxCell id="w3yg10zAp99pLnALNRif-30" style="edgeStyle=orthogonalEdgeStyle;rounded=0;orthogonalLoop=1;jettySize=auto;html=1;" edge="1" parent="1" source="w3yg10zAp99pLnALNRif-32" target="w3yg10zAp99pLnALNRif-45">
<mxGeometry relative="1" as="geometry"/>
</mxCell>
<mxCell id="w3yg10zAp99pLnALNRif-31" style="edgeStyle=orthogonalEdgeStyle;rounded=0;orthogonalLoop=1;jettySize=auto;html=1;" edge="1" parent="1" source="w3yg10zAp99pLnALNRif-32" target="w3yg10zAp99pLnALNRif-46">
<mxGeometry relative="1" as="geometry"/>
</mxCell>
<mxCell id="w3yg10zAp99pLnALNRif-32" value="Project board" style="whiteSpace=wrap;html=1;rounded=1;" vertex="1" parent="1">
<mxGeometry x="1550" y="570" width="120" height="60" as="geometry"/>
</mxCell>
<mxCell id="w3yg10zAp99pLnALNRif-33" style="edgeStyle=orthogonalEdgeStyle;rounded=0;orthogonalLoop=1;jettySize=auto;html=1;" edge="1" parent="1" source="w3yg10zAp99pLnALNRif-37" target="w3yg10zAp99pLnALNRif-47">
<mxGeometry relative="1" as="geometry"/>
</mxCell>
<mxCell id="w3yg10zAp99pLnALNRif-34" style="edgeStyle=orthogonalEdgeStyle;rounded=0;orthogonalLoop=1;jettySize=auto;html=1;entryX=0;entryY=0.5;entryDx=0;entryDy=0;" edge="1" parent="1" source="w3yg10zAp99pLnALNRif-37" target="w3yg10zAp99pLnALNRif-48">
<mxGeometry relative="1" as="geometry"/>
</mxCell>
<mxCell id="w3yg10zAp99pLnALNRif-35" style="edgeStyle=orthogonalEdgeStyle;rounded=0;orthogonalLoop=1;jettySize=auto;html=1;entryX=0;entryY=0.5;entryDx=0;entryDy=0;" edge="1" parent="1" source="w3yg10zAp99pLnALNRif-37" target="w3yg10zAp99pLnALNRif-49">
<mxGeometry relative="1" as="geometry"/>
</mxCell>
<mxCell id="w3yg10zAp99pLnALNRif-36" style="edgeStyle=orthogonalEdgeStyle;rounded=0;orthogonalLoop=1;jettySize=auto;html=1;entryX=0;entryY=0.5;entryDx=0;entryDy=0;" edge="1" parent="1" source="w3yg10zAp99pLnALNRif-37" target="w3yg10zAp99pLnALNRif-50">
<mxGeometry relative="1" as="geometry">
<Array as="points">
<mxPoint x="1700" y="750"/>
<mxPoint x="1700" y="970"/>
</Array>
</mxGeometry>
</mxCell>
<mxCell id="w3yg10zAp99pLnALNRif-37" value="Team workspace" style="whiteSpace=wrap;html=1;rounded=1;" vertex="1" parent="1">
<mxGeometry x="1550" y="720" width="120" height="60" as="geometry"/>
</mxCell>
<mxCell id="w3yg10zAp99pLnALNRif-38" style="edgeStyle=orthogonalEdgeStyle;rounded=0;orthogonalLoop=1;jettySize=auto;html=1;" edge="1" parent="1" source="w3yg10zAp99pLnALNRif-41" target="w3yg10zAp99pLnALNRif-51">
<mxGeometry relative="1" as="geometry"/>
</mxCell>
<mxCell id="w3yg10zAp99pLnALNRif-39" style="edgeStyle=orthogonalEdgeStyle;rounded=0;orthogonalLoop=1;jettySize=auto;html=1;entryX=0;entryY=0.5;entryDx=0;entryDy=0;" edge="1" parent="1" source="w3yg10zAp99pLnALNRif-41" target="w3yg10zAp99pLnALNRif-52">
<mxGeometry relative="1" as="geometry"/>
</mxCell>
<mxCell id="w3yg10zAp99pLnALNRif-40" style="edgeStyle=orthogonalEdgeStyle;rounded=0;orthogonalLoop=1;jettySize=auto;html=1;entryX=0;entryY=0.5;entryDx=0;entryDy=0;" edge="1" parent="1" source="w3yg10zAp99pLnALNRif-41" target="w3yg10zAp99pLnALNRif-53">
<mxGeometry relative="1" as="geometry"/>
</mxCell>
<mxCell id="w3yg10zAp99pLnALNRif-41" value="Milestone &amp; Checkpoint" style="whiteSpace=wrap;html=1;rounded=1;" vertex="1" parent="1">
<mxGeometry x="1560" y="1020" width="120" height="60" as="geometry"/>
</mxCell>
<mxCell id="w3yg10zAp99pLnALNRif-42" style="edgeStyle=orthogonalEdgeStyle;rounded=0;orthogonalLoop=1;jettySize=auto;html=1;entryX=0;entryY=0.5;entryDx=0;entryDy=0;" edge="1" parent="1" source="w3yg10zAp99pLnALNRif-44" target="w3yg10zAp99pLnALNRif-54">
<mxGeometry relative="1" as="geometry"/>
</mxCell>
<mxCell id="w3yg10zAp99pLnALNRif-43" style="edgeStyle=orthogonalEdgeStyle;rounded=0;orthogonalLoop=1;jettySize=auto;html=1;entryX=0;entryY=0.5;entryDx=0;entryDy=0;" edge="1" parent="1" source="w3yg10zAp99pLnALNRif-44" target="w3yg10zAp99pLnALNRif-55">
<mxGeometry relative="1" as="geometry"/>
</mxCell>
<mxCell id="w3yg10zAp99pLnALNRif-44" value="Peer evaluation" style="whiteSpace=wrap;html=1;rounded=1;" vertex="1" parent="1">
<mxGeometry x="1540" y="1310" width="120" height="60" as="geometry"/>
</mxCell>
<mxCell id="w3yg10zAp99pLnALNRif-45" value="Manage task list" style="rounded=1;whiteSpace=wrap;html=1;" vertex="1" parent="1">
<mxGeometry x="1730" y="540" width="120" height="60" as="geometry"/>
</mxCell>
<mxCell id="w3yg10zAp99pLnALNRif-46" value="Manage task card" style="rounded=1;whiteSpace=wrap;html=1;" vertex="1" parent="1">
<mxGeometry x="1730" y="620" width="120" height="60" as="geometry"/>
</mxCell>
<mxCell id="w3yg10zAp99pLnALNRif-47" value="Manage git" style="rounded=1;whiteSpace=wrap;html=1;" vertex="1" parent="1">
<mxGeometry x="1730" y="700" width="120" height="60" as="geometry"/>
</mxCell>
<mxCell id="w3yg10zAp99pLnALNRif-48" value="View team dashboard" style="rounded=1;whiteSpace=wrap;html=1;" vertex="1" parent="1">
<mxGeometry x="1730" y="780" width="120" height="60" as="geometry"/>
</mxCell>
<mxCell id="w3yg10zAp99pLnALNRif-49" value="Tracking members" style="rounded=1;whiteSpace=wrap;html=1;" vertex="1" parent="1">
<mxGeometry x="1730" y="860" width="120" height="60" as="geometry"/>
</mxCell>
<mxCell id="w3yg10zAp99pLnALNRif-50" value="Manage members" style="rounded=1;whiteSpace=wrap;html=1;" vertex="1" parent="1">
<mxGeometry x="1740" y="940" width="120" height="60" as="geometry"/>
</mxCell>
<mxCell id="w3yg10zAp99pLnALNRif-51" value="View project milestone" style="rounded=1;whiteSpace=wrap;html=1;" vertex="1" parent="1">
<mxGeometry x="1730" y="1020" width="120" height="60" as="geometry"/>
</mxCell>
<mxCell id="w3yg10zAp99pLnALNRif-52" value="Manage milestone checkpoint" style="rounded=1;whiteSpace=wrap;html=1;" vertex="1" parent="1">
<mxGeometry x="1730" y="1110" width="120" height="60" as="geometry"/>
</mxCell>
<mxCell id="w3yg10zAp99pLnALNRif-53" value="Answer milestone question" style="rounded=1;whiteSpace=wrap;html=1;" vertex="1" parent="1">
<mxGeometry x="1730" y="1190" width="120" height="60" as="geometry"/>
</mxCell>
<mxCell id="w3yg10zAp99pLnALNRif-54" value="View lecture evaluations" style="rounded=1;whiteSpace=wrap;html=1;" vertex="1" parent="1">
<mxGeometry x="1730" y="1290" width="120" height="60" as="geometry"/>
</mxCell>
<mxCell id="w3yg10zAp99pLnALNRif-55" value="Rate members" style="rounded=1;whiteSpace=wrap;html=1;" vertex="1" parent="1">
<mxGeometry x="1730" y="1380" width="120" height="60" as="geometry"/>
</mxCell>
<mxCell id="w3yg10zAp99pLnALNRif-56" value="Manage profile" style="rounded=1;whiteSpace=wrap;html=1;" vertex="1" parent="1">
<mxGeometry x="950" y="270" width="120" height="60" as="geometry"/>
</mxCell>
<!-- Added flows: Logout, 401/403, Profile splits, Activity/Analytics, Project filters, Project hub, Board settings/view, Git config, Join class, Empty/Error states -->
<!-- Logout from Home -->
<mxCell id="w3yg10zAp99pLnALNRif-57" value="Logout" style="rounded=1;whiteSpace=wrap;html=1;fillColor=#f5f5f5;strokeColor=#666666;" vertex="1" parent="1">
<mxGeometry x="950" y="610" width="120" height="50" as="geometry"/>
</mxCell>
<mxCell id="w3yg10zAp99pLnALNRif-58" style="edgeStyle=orthogonalEdgeStyle;rounded=0;orthogonalLoop=1;jettySize=auto;html=1;" edge="1" parent="1" source="w3yg10zAp99pLnALNRif-13" target="w3yg10zAp99pLnALNRif-57">
<mxGeometry relative="1" as="geometry"/>
</mxCell>
<mxCell id="w3yg10zAp99pLnALNRif-59" style="edgeStyle=orthogonalEdgeStyle;rounded=0;orthogonalLoop=1;jettySize=auto;html=1;" edge="1" parent="1" source="w3yg10zAp99pLnALNRif-57" target="w3yg10zAp99pLnALNRif-3">
<mxGeometry relative="1" as="geometry"/>
</mxCell>
<!-- Session expired (401) from Home to Login -->
<mxCell id="w3yg10zAp99pLnALNRif-60" value="Session expired (401)" style="rounded=1;whiteSpace=wrap;html=1;fillColor=#f5f5f5;strokeColor=#666666;" vertex="1" parent="1">
<mxGeometry x="830" y="530" width="120" height="50" as="geometry"/>
</mxCell>
<mxCell id="w3yg10zAp99pLnALNRif-61" style="edgeStyle=orthogonalEdgeStyle;rounded=0;orthogonalLoop=1;jettySize=auto;html=1;" edge="1" parent="1" source="w3yg10zAp99pLnALNRif-13" target="w3yg10zAp99pLnALNRif-60">
<mxGeometry relative="1" as="geometry"/>
</mxCell>
<mxCell id="w3yg10zAp99pLnALNRif-62" style="edgeStyle=orthogonalEdgeStyle;rounded=0;orthogonalLoop=1;jettySize=auto;html=1;" edge="1" parent="1" source="w3yg10zAp99pLnALNRif-60" target="w3yg10zAp99pLnALNRif-3">
<mxGeometry relative="1" as="geometry"/>
</mxCell>
<!-- Access denied (403) from deep-linking Project board -->
<mxCell id="w3yg10zAp99pLnALNRif-63" value="Access denied (403)" style="rounded=1;whiteSpace=wrap;html=1;fillColor=#f5f5f5;strokeColor=#666666;" vertex="1" parent="1">
<mxGeometry x="1890" y="570" width="140" height="50" as="geometry"/>
</mxCell>
<mxCell id="w3yg10zAp99pLnALNRif-64" style="edgeStyle=orthogonalEdgeStyle;rounded=0;orthogonalLoop=1;jettySize=auto;html=1;" edge="1" parent="1" source="w3yg10zAp99pLnALNRif-32" target="w3yg10zAp99pLnALNRif-63">
<mxGeometry relative="1" as="geometry"/>
</mxCell>
<mxCell id="w3yg10zAp99pLnALNRif-65" style="edgeStyle=orthogonalEdgeStyle;rounded=0;orthogonalLoop=1;jettySize=auto;html=1;" edge="1" parent="1" source="w3yg10zAp99pLnALNRif-63" target="w3yg10zAp99pLnALNRif-13">
<mxGeometry relative="1" as="geometry"/>
</mxCell>
<!-- Profile splits: Profile information and Account settings -> Change password -->
<mxCell id="w3yg10zAp99pLnALNRif-66" value="Profile information" style="rounded=1;whiteSpace=wrap;html=1;" vertex="1" parent="1">
<mxGeometry x="820" y="380" width="120" height="50" as="geometry"/>
</mxCell>
<mxCell id="w3yg10zAp99pLnALNRif-67" style="edgeStyle=orthogonalEdgeStyle;rounded=0;orthogonalLoop=1;jettySize=auto;html=1;" edge="1" parent="1" source="w3yg10zAp99pLnALNRif-15" target="w3yg10zAp99pLnALNRif-66">
<mxGeometry relative="1" as="geometry"/>
</mxCell>
<mxCell id="w3yg10zAp99pLnALNRif-68" value="Account settings" style="rounded=1;whiteSpace=wrap;html=1;" vertex="1" parent="1">
<mxGeometry x="950" y="200" width="120" height="50" as="geometry"/>
</mxCell>
<mxCell id="w3yg10zAp99pLnALNRif-69" style="edgeStyle=orthogonalEdgeStyle;rounded=0;orthogonalLoop=1;jettySize=auto;html=1;" edge="1" parent="1" source="w3yg10zAp99pLnALNRif-15" target="w3yg10zAp99pLnALNRif-68">
<mxGeometry relative="1" as="geometry"/>
</mxCell>
<mxCell id="w3yg10zAp99pLnALNRif-70" value="Change password" style="rounded=1;whiteSpace=wrap;html=1;" vertex="1" parent="1">
<mxGeometry x="950" y="150" width="120" height="40" as="geometry"/>
</mxCell>
<mxCell id="w3yg10zAp99pLnALNRif-71" style="edgeStyle=orthogonalEdgeStyle;rounded=0;orthogonalLoop=1;jettySize=auto;html=1;" edge="1" parent="1" source="w3yg10zAp99pLnALNRif-68" target="w3yg10zAp99pLnALNRif-70">
<mxGeometry relative="1" as="geometry"/>
</mxCell>
<!-- Home: Activity feed and Progress analytics -->
<mxCell id="w3yg10zAp99pLnALNRif-72" value="Activity feed" style="rounded=1;whiteSpace=wrap;html=1;" vertex="1" parent="1">
<mxGeometry x="830" y="470" width="120" height="50" as="geometry"/>
</mxCell>
<mxCell id="w3yg10zAp99pLnALNRif-73" style="edgeStyle=orthogonalEdgeStyle;rounded=0;orthogonalLoop=1;jettySize=auto;html=1;" edge="1" parent="1" source="w3yg10zAp99pLnALNRif-13" target="w3yg10zAp99pLnALNRif-72">
<mxGeometry relative="1" as="geometry"/>
</mxCell>
<mxCell id="w3yg10zAp99pLnALNRif-74" value="Progress analytics" style="rounded=1;whiteSpace=wrap;html=1;" vertex="1" parent="1">
<mxGeometry x="1090" y="470" width="120" height="50" as="geometry"/>
</mxCell>
<mxCell id="w3yg10zAp99pLnALNRif-75" style="edgeStyle=orthogonalEdgeStyle;rounded=0;orthogonalLoop=1;jettySize=auto;html=1;" edge="1" parent="1" source="w3yg10zAp99pLnALNRif-13" target="w3yg10zAp99pLnALNRif-74">
<mxGeometry relative="1" as="geometry"/>
</mxCell>
<!-- Projects page: Filters and error state -->
<mxCell id="w3yg10zAp99pLnALNRif-76" value="Filter / Sort / Search" style="rounded=1;whiteSpace=wrap;html=1;" vertex="1" parent="1">
<mxGeometry x="1150" y="640" width="140" height="50" as="geometry"/>
</mxCell>
<mxCell id="w3yg10zAp99pLnALNRif-77" style="edgeStyle=orthogonalEdgeStyle;rounded=0;orthogonalLoop=1;jettySize=auto;html=1;" edge="1" parent="1" source="w3yg10zAp99pLnALNRif-24" target="w3yg10zAp99pLnALNRif-76">
<mxGeometry relative="1" as="geometry"/>
</mxCell>
<mxCell id="w3yg10zAp99pLnALNRif-100" value="Network / API error" style="rounded=1;whiteSpace=wrap;html=1;fillColor=#f8cecc;strokeColor=#b85450;" vertex="1" parent="1">
<mxGeometry x="1150" y="700" width="140" height="50" as="geometry"/>
</mxCell>
<mxCell id="w3yg10zAp99pLnALNRif-101" style="edgeStyle=orthogonalEdgeStyle;rounded=0;orthogonalLoop=1;jettySize=auto;html=1;" edge="1" parent="1" source="w3yg10zAp99pLnALNRif-24" target="w3yg10zAp99pLnALNRif-100">
<mxGeometry relative="1" as="geometry"/>
</mxCell>
<!-- Project detail hub -->
<mxCell id="w3yg10zAp99pLnALNRif-78" value="Project detail" style="rounded=1;whiteSpace=wrap;html=1;fillColor=#dae8fc;strokeColor=#6c8ebf;" vertex="1" parent="1">
<mxGeometry x="1450" y="650" width="120" height="60" as="geometry"/>
</mxCell>
<mxCell id="w3yg10zAp99pLnALNRif-79" style="edgeStyle=orthogonalEdgeStyle;rounded=0;orthogonalLoop=1;jettySize=auto;html=1;" edge="1" parent="1" source="w3yg10zAp99pLnALNRif-29" target="w3yg10zAp99pLnALNRif-78">
<mxGeometry relative="1" as="geometry"/>
</mxCell>
<mxCell id="w3yg10zAp99pLnALNRif-80" style="edgeStyle=orthogonalEdgeStyle;rounded=0;orthogonalLoop=1;jettySize=auto;html=1;" edge="1" parent="1" source="w3yg10zAp99pLnALNRif-78" target="w3yg10zAp99pLnALNRif-32">
<mxGeometry relative="1" as="geometry"/>
</mxCell>
<mxCell id="w3yg10zAp99pLnALNRif-81" style="edgeStyle=orthogonalEdgeStyle;rounded=0;orthogonalLoop=1;jettySize=auto;html=1;" edge="1" parent="1" source="w3yg10zAp99pLnALNRif-78" target="w3yg10zAp99pLnALNRif-37">
<mxGeometry relative="1" as="geometry"/>
</mxCell>
<mxCell id="w3yg10zAp99pLnALNRif-82" style="edgeStyle=orthogonalEdgeStyle;rounded=0;orthogonalLoop=1;jettySize=auto;html=1;" edge="1" parent="1" source="w3yg10zAp99pLnALNRif-78" target="w3yg10zAp99pLnALNRif-41">
<mxGeometry relative="1" as="geometry"/>
</mxCell>
<mxCell id="w3yg10zAp99pLnALNRif-83" style="edgeStyle=orthogonalEdgeStyle;rounded=0;orthogonalLoop=1;jettySize=auto;html=1;" edge="1" parent="1" source="w3yg10zAp99pLnALNRif-78" target="w3yg10zAp99pLnALNRif-44">
<mxGeometry relative="1" as="geometry"/>
</mxCell>
<!-- Project board: Board settings and View menu; Not found (404) -->
<mxCell id="w3yg10zAp99pLnALNRif-84" value="Board settings" style="rounded=1;whiteSpace=wrap;html=1;" vertex="1" parent="1">
<mxGeometry x="1730" y="500" width="120" height="40" as="geometry"/>
</mxCell>
<mxCell id="w3yg10zAp99pLnALNRif-85" style="edgeStyle=orthogonalEdgeStyle;rounded=0;orthogonalLoop=1;jettySize=auto;html=1;" edge="1" parent="1" source="w3yg10zAp99pLnALNRif-32" target="w3yg10zAp99pLnALNRif-84">
<mxGeometry relative="1" as="geometry"/>
</mxCell>
<mxCell id="w3yg10zAp99pLnALNRif-86" value="Board view menu" style="rounded=1;whiteSpace=wrap;html=1;" vertex="1" parent="1">
<mxGeometry x="1730" y="460" width="120" height="40" as="geometry"/>
</mxCell>
<mxCell id="w3yg10zAp99pLnALNRif-87" style="edgeStyle=orthogonalEdgeStyle;rounded=0;orthogonalLoop=1;jettySize=auto;html=1;" edge="1" parent="1" source="w3yg10zAp99pLnALNRif-32" target="w3yg10zAp99pLnALNRif-86">
<mxGeometry relative="1" as="geometry"/>
</mxCell>
<mxCell id="w3yg10zAp99pLnALNRif-102" value="Not found (404)" style="rounded=1;whiteSpace=wrap;html=1;fillColor=#f8cecc;strokeColor=#b85450;" vertex="1" parent="1">
<mxGeometry x="1890" y="620" width="130" height="50" as="geometry"/>
</mxCell>
<mxCell id="w3yg10zAp99pLnALNRif-103" style="edgeStyle=orthogonalEdgeStyle;rounded=0;orthogonalLoop=1;jettySize=auto;html=1;" edge="1" parent="1" source="w3yg10zAp99pLnALNRif-32" target="w3yg10zAp99pLnALNRif-102">
<mxGeometry relative="1" as="geometry"/>
</mxCell>
<!-- Manage git: subnodes -->
<mxCell id="w3yg10zAp99pLnALNRif-88" value="Connect Git provider" style="rounded=1;whiteSpace=wrap;html=1;" vertex="1" parent="1">
<mxGeometry x="1890" y="700" width="160" height="50" as="geometry"/>
</mxCell>
<mxCell id="w3yg10zAp99pLnALNRif-89" style="edgeStyle=orthogonalEdgeStyle;rounded=0;orthogonalLoop=1;jettySize=auto;html=1;" edge="1" parent="1" source="w3yg10zAp99pLnALNRif-47" target="w3yg10zAp99pLnALNRif-88">
<mxGeometry relative="1" as="geometry"/>
</mxCell>
<mxCell id="w3yg10zAp99pLnALNRif-90" value="Link / Unlink repository" style="rounded=1;whiteSpace=wrap;html=1;" vertex="1" parent="1">
<mxGeometry x="1890" y="740" width="160" height="50" as="geometry"/>
</mxCell>
<mxCell id="w3yg10zAp99pLnALNRif-91" style="edgeStyle=orthogonalEdgeStyle;rounded=0;orthogonalLoop=1;jettySize=auto;html=1;" edge="1" parent="1" source="w3yg10zAp99pLnALNRif-47" target="w3yg10zAp99pLnALNRif-90">
<mxGeometry relative="1" as="geometry"/>
</mxCell>
<mxCell id="w3yg10zAp99pLnALNRif-92" value="View commits (optional)" style="rounded=1;whiteSpace=wrap;html=1;" vertex="1" parent="1">
<mxGeometry x="1890" y="780" width="160" height="50" as="geometry"/>
</mxCell>
<mxCell id="w3yg10zAp99pLnALNRif-93" style="edgeStyle=orthogonalEdgeStyle;rounded=0;orthogonalLoop=1;jettySize=auto;html=1;" edge="1" parent="1" source="w3yg10zAp99pLnALNRif-47" target="w3yg10zAp99pLnALNRif-92">
<mxGeometry relative="1" as="geometry"/>
</mxCell>
<!-- Classes: Join and Empty state -->
<mxCell id="w3yg10zAp99pLnALNRif-94" value="Join class" style="rounded=1;whiteSpace=wrap;html=1;" vertex="1" parent="1">
<mxGeometry x="1150" y="360" width="120" height="50" as="geometry"/>
</mxCell>
<mxCell id="w3yg10zAp99pLnALNRif-95" style="edgeStyle=orthogonalEdgeStyle;rounded=0;orthogonalLoop=1;jettySize=auto;html=1;" edge="1" parent="1" source="w3yg10zAp99pLnALNRif-17" target="w3yg10zAp99pLnALNRif-94">
<mxGeometry relative="1" as="geometry"/>
</mxCell>
<mxCell id="w3yg10zAp99pLnALNRif-96" value="Empty: No classes" style="rounded=1;whiteSpace=wrap;html=1;fillColor=#f5f5f5;strokeColor=#666666;" vertex="1" parent="1">
<mxGeometry x="1150" y="480" width="140" height="50" as="geometry"/>
</mxCell>
<mxCell id="w3yg10zAp99pLnALNRif-97" style="edgeStyle=orthogonalEdgeStyle;rounded=0;orthogonalLoop=1;jettySize=auto;html=1;" edge="1" parent="1" source="w3yg10zAp99pLnALNRif-17" target="w3yg10zAp99pLnALNRif-96">
<mxGeometry relative="1" as="geometry"/>
</mxCell>
<!-- Projects: Empty state -->
<mxCell id="w3yg10zAp99pLnALNRif-98" value="Empty: No projects" style="rounded=1;whiteSpace=wrap;html=1;fillColor=#f5f5f5;strokeColor=#666666;" vertex="1" parent="1">
<mxGeometry x="1350" y="640" width="140" height="50" as="geometry"/>
</mxCell>
<mxCell id="w3yg10zAp99pLnALNRif-99" style="edgeStyle=orthogonalEdgeStyle;rounded=0;orthogonalLoop=1;jettySize=auto;html=1;" edge="1" parent="1" source="w3yg10zAp99pLnALNRif-29" target="w3yg10zAp99pLnALNRif-98">
<mxGeometry relative="1" as="geometry"/>
</mxCell>
<!-- Manage members: Invite & Leave team -->
<mxCell id="w3yg10zAp99pLnALNRif-104" value="Invite member" style="rounded=1;whiteSpace=wrap;html=1;" vertex="1" parent="1">
<mxGeometry x="1890" y="940" width="140" height="50" as="geometry"/>
</mxCell>
<mxCell id="w3yg10zAp99pLnALNRif-105" style="edgeStyle=orthogonalEdgeStyle;rounded=0;orthogonalLoop=1;jettySize=auto;html=1;" edge="1" parent="1" source="w3yg10zAp99pLnALNRif-50" target="w3yg10zAp99pLnALNRif-104">
<mxGeometry relative="1" as="geometry"/>
</mxCell>
<mxCell id="w3yg10zAp99pLnALNRif-106" value="Leave team" style="rounded=1;whiteSpace=wrap;html=1;" vertex="1" parent="1">
<mxGeometry x="1890" y="980" width="140" height="50" as="geometry"/>
</mxCell>
<mxCell id="w3yg10zAp99pLnALNRif-107" style="edgeStyle=orthogonalEdgeStyle;rounded=0;orthogonalLoop=1;jettySize=auto;html=1;" edge="1" parent="1" source="w3yg10zAp99pLnALNRif-50" target="w3yg10zAp99pLnALNRif-106">
<mxGeometry relative="1" as="geometry"/>
</mxCell>
</root>
</mxGraphModel>
</diagram>
</mxfile>